<?xml version="1.0"?>
<svg xmlns="http://www.w3.org/2000/svg" xmlns:xlink="http://www.w3.org/1999/xlink" xmlns:svgjs="http://svgjs.com/svgjs" version="1.1" width="512" height="512" x="0" y="0" viewBox="0 0 512 512" style="enable-background:new 0 0 512 512" xml:space="preserve" class=""><g><path xmlns="http://www.w3.org/2000/svg" d="m488 144c0-79.402-64.598-144-144-144h-176c-79.402 0-144 64.598-144 144v224c0 79.402 64.598 144 144 144h176c79.402 0 144-64.598 144-144zm-320-96h176c52.935 0 96 43.065 96 96v16h-368v-16c0-52.935 43.065-96 96-96zm0 160h176v11c0 11.58-9.421 21-21 21h-134c-11.579 0-21-9.42-21-21zm176 256h-176c-52.935 0-96-43.065-96-96v-160h48v11c0 38.047 30.953 69 69 69h134c38.047 0 69-30.953 69-69v-11h48v160c0 52.935-43.065 96-96 96z" fill="#000000" data-original="#000000" style="" class=""/><path xmlns="http://www.w3.org/2000/svg" d="m256.02 312h-.01c-13.255 0-23.995 10.745-23.995 24s10.751 24 24.005 24c13.255 0 24-10.745 24-24s-10.746-24-24-24z" fill="#000000" data-original="#000000" style="" class=""/></g></svg>
